# Blender v2.76 (sub 0) OBJ File: 'asteroidcollection.blend'
# www.blender.org
mtllib engine.mtl
g EngineMain.002_Plane.039
v 0.165000 0.039451 -1.260000
v 0.266189 -0.058500 -1.260000
v 0.433812 -0.058500 -1.260000
v 0.266189 0.158500 -1.260000
v 0.433812 0.158500 -1.260000
v 0.535000 0.060549 -1.260000
v 0.535000 0.039451 -1.260000
v 0.165000 0.060549 -1.260000
v 1.694385 0.073769 -1.010000
v 1.676577 0.145000 -1.010000
v 1.505616 0.073769 -1.010000
v 1.505616 0.026231 -1.010000
v 1.694385 0.026231 -1.010000
v 1.523423 -0.045000 -1.010000
v 1.523423 0.145000 -1.010000
v 1.676577 -0.045000 -1.010000
v 1.094385 0.073769 -1.210000
v 1.076577 0.145000 -1.210000
v 0.905616 0.073769 -1.210000
v 0.905616 0.026231 -1.210000
v 1.094385 0.026231 -1.210000
v 0.923423 -0.045000 -1.210000
v 0.923423 0.145000 -1.210000
v 1.076577 -0.045000 -1.210000
v -0.535000 0.039451 -1.260000
v -0.433811 -0.058500 -1.260000
v -0.266188 -0.058500 -1.260000
v -0.433811 0.158500 -1.260000
v -0.266188 0.158500 -1.260000
v -0.165000 0.060549 -1.260000
v -0.165000 0.039451 -1.260000
v -0.535000 0.060549 -1.260000
v -1.094384 0.026231 -1.210000
v -0.905615 0.026231 -1.210000
v -1.076576 -0.045000 -1.210000
v -0.923423 -0.045000 -1.210000
v -1.505615 0.073769 -1.010000
v -1.523423 0.145000 -1.010000
v -1.694384 0.073769 -1.010000
v -1.694384 0.026231 -1.010000
v -1.505615 0.026231 -1.010000
v -1.676577 -0.045000 -1.010000
v -1.676577 0.145000 -1.010000
v -1.523423 -0.045000 -1.010000
v -0.905615 0.073769 -1.210000
v -0.923423 0.145000 -1.210000
v -1.094384 0.073769 -1.210000
v -1.076576 0.145000 -1.210000
vt 0.273449 0.586451
vt 0.000139 0.321703
vt 0.273651 0.000139
vt 0.462059 0.779623
vt 0.510173 0.972082
vt 0.000139 0.972082
vt 0.510173 0.586886
vt 0.462059 0.779345
vt 0.048253 0.779345
vt 0.048253 0.779623
vt 0.726551 0.000296
vt 0.726349 0.586607
vt 0.999861 0.265043
vt 0.999841 0.322049
vt 0.000159 0.264697
vt 0.000139 0.586886
vn -0.000000 0.000000 -1.000000
usemtl engine_emit
s off
f 5/1/1 6/2/1 3/3/1
f 14/4/1 12/5/1 13/6/1
f 11/7/1 15/8/1 10/9/1
f 20/5/1 21/6/1 24/10/1
f 19/7/1 23/8/1 18/9/1
f 29/1/1 30/2/1 27/3/1
f 33/5/1 34/6/1 36/10/1
f 42/4/1 40/5/1 41/6/1
f 39/7/1 43/8/1 38/9/1
f 47/7/1 48/8/1 46/9/1
f 3/3/1 2/11/1 4/12/1
f 1/13/1 8/14/1 4/12/1
f 4/12/1 5/1/1 3/3/1
f 6/2/1 7/15/1 3/3/1
f 2/11/1 1/13/1 4/12/1
f 16/10/1 14/4/1 13/6/1
f 9/16/1 11/7/1 10/9/1
f 22/4/1 20/5/1 24/10/1
f 17/16/1 19/7/1 18/9/1
f 27/3/1 26/11/1 28/12/1
f 25/13/1 32/14/1 28/12/1
f 28/12/1 29/1/1 27/3/1
f 30/2/1 31/15/1 27/3/1
f 26/11/1 25/13/1 28/12/1
f 35/4/1 33/5/1 36/10/1
f 44/10/1 42/4/1 41/6/1
f 37/16/1 39/7/1 38/9/1
f 45/16/1 47/7/1 46/9/1
